<?xml version="1.0" encoding="UTF-8" standalone="no"?>
<!DOCTYPE svg PUBLIC "-//W3C//DTD SVG 1.1//EN"
 "http://www.w3.org/Graphics/SVG/1.1/DTD/svg11.dtd">
<!-- Generated by graphviz version 2.50.0 (0)
 -->
<!-- Pages: 1 -->
<svg width="324pt" height="120pt"
 viewBox="0.00 0.00 324.09 119.80" xmlns="http://www.w3.org/2000/svg" xmlns:xlink="http://www.w3.org/1999/xlink">
<g id="graph0" class="graph" transform="scale(1 1) rotate(0) translate(4 115.8)">
<polygon fill="white" stroke="transparent" points="-4,4 -4,-115.8 320.09,-115.8 320.09,4 -4,4"/>
<!-- &#45;5918398314450228602 -->
<g id="node1" class="node">
<title>&#45;5918398314450228602</title>
<ellipse fill="none" stroke="black" cx="200.74" cy="-54.1" rx="25.2" ry="25.2"/>
<text text-anchor="middle" x="200.74" y="-50.4" font-family="Helvetica,sans-Serif" font-size="14.00">add</text>
</g>
<!-- 4759179322896523586 -->
<g id="node2" class="node">
<title>4759179322896523586</title>
<polygon fill="none" stroke="black" points="316.09,-72.1 262.09,-72.1 262.09,-36.1 316.09,-36.1 316.09,-72.1"/>
</g>
<!-- &#45;5918398314450228602&#45;&gt;4759179322896523586 -->
<g id="edge1" class="edge">
<title>&#45;5918398314450228602&#45;&gt;4759179322896523586</title>
<path fill="none" stroke="black" d="M226.26,-54.1C234.2,-54.1 243.18,-54.1 251.79,-54.1"/>
<polygon fill="black" stroke="black" points="252.01,-57.6 262.01,-54.1 252.01,-50.6 252.01,-57.6"/>
</g>
<!-- 3763162573756966940 -->
<g id="node3" class="node">
<title>3763162573756966940</title>
<polygon fill="none" stroke="black" points="139.4,-102.1 85.4,-102.1 85.4,-66.1 139.4,-66.1 139.4,-102.1"/>
</g>
<!-- 3763162573756966940&#45;&gt;&#45;5918398314450228602 -->
<g id="edge2" class="edge">
<title>3763162573756966940&#45;&gt;&#45;5918398314450228602</title>
<path fill="none" stroke="black" d="M139.77,-74.93C148.28,-71.98 157.81,-68.67 166.73,-65.57"/>
<polygon fill="black" stroke="black" points="168.16,-68.78 176.45,-62.19 165.86,-62.17 168.16,-68.78"/>
</g>
<!-- &#45;7286402018766863450 -->
<g id="node4" class="node">
<title>&#45;7286402018766863450</title>
<polygon fill="none" stroke="black" points="139.4,-45.1 85.4,-45.1 85.4,-9.1 139.4,-9.1 139.4,-45.1"/>
</g>
<!-- &#45;7286402018766863450&#45;&gt;&#45;5918398314450228602 -->
<g id="edge3" class="edge">
<title>&#45;7286402018766863450&#45;&gt;&#45;5918398314450228602</title>
<path fill="none" stroke="black" d="M139.77,-35.35C148.28,-38 157.81,-40.99 166.73,-43.78"/>
<polygon fill="black" stroke="black" points="165.87,-47.17 176.45,-46.82 167.95,-40.49 165.87,-47.17"/>
</g>
<!-- &#45;721509267095613944 -->
<g id="node5" class="node">
<title>&#45;721509267095613944</title>
<ellipse fill="none" stroke="black" cx="24.7" cy="-22.1" rx="22.2" ry="22.2"/>
<text text-anchor="middle" x="24.7" y="-18.4" font-family="Helvetica,sans-Serif" font-size="14.00">inc</text>
</g>
<!-- &#45;721509267095613944&#45;&gt;&#45;7286402018766863450 -->
<g id="edge4" class="edge">
<title>&#45;721509267095613944&#45;&gt;&#45;7286402018766863450</title>
<path fill="none" stroke="black" d="M46.88,-23.33C55.4,-23.83 65.47,-24.42 75.08,-24.98"/>
<polygon fill="black" stroke="black" points="75.06,-28.48 85.25,-25.57 75.47,-21.5 75.06,-28.48"/>
</g>
<!-- &#45;8217796914826882705 -->
<g id="node6" class="node">
<title>&#45;8217796914826882705</title>
<ellipse fill="none" stroke="black" cx="24.7" cy="-87.1" rx="24.9" ry="24.9"/>
<text text-anchor="middle" x="24.7" y="-83.4" font-family="Helvetica,sans-Serif" font-size="14.00">dec</text>
</g>
<!-- &#45;8217796914826882705&#45;&gt;3763162573756966940 -->
<g id="edge5" class="edge">
<title>&#45;8217796914826882705&#45;&gt;3763162573756966940</title>
<path fill="none" stroke="black" d="M49.57,-86.26C57.46,-85.99 66.42,-85.67 75.02,-85.37"/>
<polygon fill="black" stroke="black" points="75.38,-88.86 85.25,-85.01 75.13,-81.87 75.38,-88.86"/>
</g>
</g>
</svg>
